<?xml version='1.0' encoding='utf-8'?>
<svg width="513.0mm" height="309.764108121mm" viewBox="-57.8528891343 -35.3292124258 115.7057782664 69.8664662946" version="1.1" xmlns="http://www.w3.org/2000/svg">
  <g transform="scale(1,-1)" stroke-linecap="round">
    <g fill="none" stroke="rgb(64,192,64)" stroke-width="0.22554732605534433" id="Visible">
      <line x1="-56.5685424961" y1="-3.1098660497" x2="-2.8284271254" y2="-33.7563646603" />
      <line x1="-26.9407683641" y1="-16.1859954816" x2="-2.8284271254" y2="-29.9365955161" />
      <path d="M -27.5692586186,-15.7454393325 Q -27.2762856674,-15.9880875903 -26.9905790584,-16.1570672712" />
      <path d="M -26.9905790584,-16.1570672712 L -26.9407683641,-16.1859954816" />
      <line x1="-31.8277110029" y1="-13.3169619432" x2="-27.5692586186" y2="-15.7454393325" />
      <path d="M -32.4562012574,-13.04069694 Q -32.1459296379,-13.2175920673 -31.8277110029,-13.3169619432" />
      <line x1="-56.5685424961" y1="0.7099030945" x2="-32.4562012574" y2="-13.04069694" />
      <path d="M -56.5685424961,-3.1098660497 A 4.0,2.2810891565631914 180.0 0,0 -57.7401153713,-1.4968924386" />
      <path d="M -2.8284271254,-33.7563646603 A 4.0,2.2810891565631914 0.0 0,1 2.8284271241,-33.7563646603" />
      <line x1="2.8284271241" y1="-33.7563646603" x2="56.5685424938" y2="-3.1098660492" />
      <path d="M 56.5685424938,-3.1098660492 A 4.0,2.2810891565631914 0.0 0,1 57.740115369,-1.4968924381" />
      <line x1="-28.9560226909" y1="12.7174375093" x2="-5.3643291615" y2="-0.7362515642" />
      <path d="M -30.4409469314,12.7174375093 A 1.0500000000000003,0.5987859035978379 180.0 0,0 -28.9560226909,12.7174375093" />
      <line x1="-54.0326404604" y1="-0.7362515644" x2="-30.4409469314" y2="12.7174375093" />
      <line x1="0.7424621191" y1="-4.2187854071" x2="24.3341556486" y2="-17.6724744806" />
      <path d="M -0.7424621214,-4.2187854071 A 1.0500000000000003,0.5987859035978379 180.0 0,0 0.7424621191,-4.2187854071" />
      <line x1="-24.3341556503" y1="-17.6724744808" x2="-0.7424621214" y2="-4.2187854071" />
      <line x1="0.7424621186" y1="29.653660426" x2="24.3341556481" y2="16.1999713524" />
      <path d="M -0.7424621218,29.653660426 A 1.0500000000000003,0.5987859035978379 180.0 0,0 0.7424621186,29.653660426" />
      <line x1="-24.3341556508" y1="16.1999713523" x2="-0.7424621218" y2="29.653660426" />
      <line x1="30.4409469287" y1="12.7174375096" x2="54.0326404581" y2="-0.7362515639" />
      <path d="M 28.9560226882,12.7174375096 A 1.0500000000000003,0.5987859035978379 180.0 0,0 30.4409469287,12.7174375096" />
      <line x1="5.3643291593" y1="-0.7362515641" x2="28.9560226882" y2="12.7174375096" />
      <path d="M -2.8284271254,-29.9365955161 L -2.7568324257,-29.9774427035" />
      <path d="M -2.7568324257,-29.9774427035 C -2.0235355246,-30.3991387447 -1.0136055804,-30.6414043867 0.0025990997,-30.638736365 C 1.0170704983,-30.6405968149 2.0247840541,-30.3984055166 2.7568324243,-29.9774427035" />
      <path d="M 2.7568324243,-29.9774427035 L 2.8284271241,-29.9365955161" />
      <path d="M -25.655022701,-16.9192206041 A 1.7499999974111646,0.9979765045200552 180.0 0,0 -25.9330519149,-16.3794760323" />
      <path d="M -25.9330519149,-16.3794760323 A 1.7499999974111646,0.9979765045200552 180.0 0,0 -25.4204887827,-15.6738000785" />
      <path d="M -27.5692586186,-13.3169619431 Q -27.2510399836,-13.2175920673 -26.9407683641,-13.04069694" />
      <path d="M -27.5692586186,-15.7454393325 A 4.0,2.2810891565631914 180.0 0,0 -27.5692586186,-13.3169619431" />
      <path d="M -27.5692586186,-13.3169619431 A 4.0,2.2810891565631914 180.0 0,0 -31.8277110029,-13.3169619432" />
      <path d="M -56.6383691525,0.7497045876 L -56.5685424961,0.7099030945" />
      <path d="M -56.6383691525,0.7497045876 L -56.6864505597,0.7776105253" />
      <path d="M -56.6864505597,0.7776105253 C -57.3593700105,1.1725671055 -57.7435452914,1.7231931245 -57.7401153713,2.2888508951" />
      <path d="M -57.7401153713,2.2888508951 C -57.7438701376,2.8677491726 -57.3404894595,3.4552441455 -56.6383691526,3.8939948632" />
      <path d="M -56.5685424961,3.9358503167 L -56.6383691526,3.8939948632" />
      <line x1="-32.4562012578" y1="17.6864503514" x2="-56.5685424961" y2="3.9358503167" />
      <path d="M -31.8277110033,18.1270065005 Q -32.1459296384,17.8634338375 -32.4562012578,17.6864503514" />
      <line x1="-27.5692586191" y1="20.5554838899" x2="-31.8277110033" y2="18.1270065005" />
      <path d="M -26.9407683646,20.831748893 Q -27.2510399841,20.6548537657 -27.5692586191,20.5554838899" />
      <line x1="-2.8284271264" y1="34.5823489278" x2="-26.9407683646" y2="20.831748893" />
      <line x1="32.4562012555" y1="-13.0406969397" x2="56.5685424938" y2="0.709903095" />
      <path d="M 31.827711001,-13.3169619429 Q 32.1459296361,-13.217592067 32.4562012555,-13.0406969397" />
      <line x1="27.5692586168" y1="-15.7454393322" x2="31.827711001" y2="-13.3169619429" />
      <path d="M 26.9407683623,-16.1859954814 L 26.9905790566,-16.157067271" />
      <path d="M 26.9905790566,-16.157067271 Q 27.2762856656,-15.98808759 27.5692586168,-15.7454393322" />
      <line x1="2.8284271241" y1="-29.9365955161" x2="26.9407683623" y2="-16.1859954814" />
      <path d="M 2.8284271231,34.5823489278 L 2.7568324234,34.6211421549" />
      <path d="M 2.7568324234,34.6211421549 C 2.0235355223,35.0009440471 1.0136055781,35.2188206337 -0.002599102,35.2164382067 C -1.0170705006,35.2180942073 -2.0247840564,35.0002837639 -2.7568324266,34.6211421548" />
      <path d="M -2.7568324266,34.6211421548 L -2.8284271264,34.5823489278" />
      <path d="M 56.5685424938,0.709903095 L 56.6383691503,0.7497045882" />
      <path d="M 56.6383691503,0.7497045882 L 56.6864505574,0.7776105258" />
      <path d="M 56.6864505574,0.7776105258 C 57.3593700082,1.172567106 57.7435452891,1.723193125 57.740115369,2.2888508956" />
      <path d="M 57.740115369,2.2888508956 C 57.7438701353,2.8677491731 57.3404894572,3.455244146 56.6383691502,3.8939948637" />
      <path d="M 56.6383691502,3.8939948637 L 56.5685424937,3.9358503172" />
      <line x1="26.9407683618" y1="20.8317488933" x2="2.8284271231" y2="34.5823489278" />
      <path d="M 27.5692586163,20.5554838902 Q 27.2510399813,20.654853766 26.9407683618,20.8317488933" />
      <line x1="31.8277110006" y1="18.1270065008" x2="27.5692586163" y2="20.5554838902" />
      <path d="M 32.4562012551,17.6864503517 Q 32.1459296356,17.8634338378 31.8277110006,18.1270065008" />
      <line x1="56.5685424937" y1="3.9358503172" x2="32.4562012551" y2="17.6864503517" />
      <line x1="-28.4610479459" y1="13.574726899" x2="-4.3651926154" y2="-0.1664716789" />
      <path d="M -30.9359216764,13.574726899 A 1.7499999974111646,0.9979765045200552 180.0 0,0 -28.4610479459,13.574726899" />
      <line x1="-55.0317770065" y1="-0.1664716791" x2="-30.9359216764" y2="13.574726899" />
      <line x1="1.2374368641" y1="-3.3614960173" x2="25.3332921947" y2="-17.1026945953" />
      <path d="M -1.2374368664,-3.3614960174 A 1.7499999974111646,0.9979765045200552 180.0 0,0 1.2374368641,-3.3614960173" />
      <line x1="-25.3332921965" y1="-17.1026945955" x2="-1.2374368664" y2="-3.3614960174" />
      <line x1="1.2374368636" y1="30.5109498157" x2="25.3332921942" y2="16.7697512378" />
      <path d="M -1.2374368668,30.5109498157 A 1.7499999974111646,0.9979765045200552 180.0 0,0 1.2374368636,30.5109498157" />
      <line x1="-25.3332921969" y1="16.7697512376" x2="-1.2374368668" y2="30.5109498157" />
      <line x1="30.9359216737" y1="13.5747268993" x2="55.0317770042" y2="-0.1664716786" />
      <path d="M 28.4610479432,13.5747268993 A 1.7499999974111646,0.9979765045200552 180.0 0,0 30.9359216737,13.5747268993" />
      <line x1="4.3651926131" y1="-0.1664716788" x2="28.4610479432" y2="13.5747268993" />
      <line x1="-26.9407683641" y1="-13.04069694" x2="-2.7577164478" y2="0.750227435" />
      <line x1="-25.4204887827" y1="-15.6738000785" x2="-1.2374368664" y2="-1.8828757035" />
      <path d="M -55.3535075111,0.0170023122 A 1.7499999974111646,0.9979765045200552 180.0 0,0 -55.631536725,0.5567468841" />
      <path d="M -55.631536725,0.5567468841 A 1.7499999974111646,0.9979765045200552 180.0 0,0 -55.1189735928,1.2624228379" />
      <line x1="-55.1189735928" y1="1.2624228379" x2="-30.9359216764" y2="15.0533472129" />
      <path d="M -30.9359216764,15.0533472129 A 1.7499999974111646,0.9979765045200552 180.0 0,0 -28.4610479459,15.0533472129" />
      <path d="M -26.9407683646,17.6864503514 L -26.9905790589,17.7153785618" />
      <path d="M -26.9905790589,17.7153785618 Q -27.2762856679,17.8843582428 -27.5692586191,18.1270065005" />
      <path d="M -31.8277110033,18.1270065005 A 4.0,2.2810891565631914 180.0 0,0 -27.5692586191,18.1270065005" />
      <path d="M -27.5692586191,18.1270065005 A 4.0,2.2810891565631914 180.0 0,0 -27.5692586191,20.5554838899" />
      <path d="M -25.6550227015,16.9532252289 A 1.7499999974111646,0.9979765045200552 180.0 0,0 -25.9330519154,17.4929698008" />
      <path d="M -25.9330519154,17.4929698008 A 1.7499999974111646,0.9979765045200552 180.0 0,0 -25.4204887832,18.1986457546" />
      <line x1="-25.4204887832" y1="18.1986457546" x2="-1.2374368668" y2="31.9895701296" />
      <path d="M 27.5692586168,-13.3169619429 Q 27.2510399818,-13.217592067 26.9407683623,-13.0406969397" />
      <path d="M 31.827711001,-13.3169619429 A 4.0,2.2810891565631914 180.0 0,0 27.5692586168,-13.3169619429" />
      <path d="M 27.5692586168,-13.3169619429 A 4.0,2.2810891565631914 180.0 0,0 27.5692586168,-15.7454393322" />
      <path d="M 25.4204887809,-15.6738000782 A 1.7499999974111646,0.9979765045200552 180.0 0,0 25.9330519131,-16.3794760321" />
      <path d="M 25.9330519131,-16.3794760321 A 1.7499999974111646,0.9979765045200552 180.0 0,0 25.6550226991,-16.919220604" />
      <line x1="1.2374368636" y1="31.9895701296" x2="25.4204887804" y2="18.1986457548" />
      <path d="M -1.2374368668,31.9895701296 A 1.7499999974111646,0.9979765045200552 180.0 0,0 1.2374368636,31.9895701296" />
      <path d="M 55.1189735905,1.2624228384 A 1.7499999974111646,0.9979765045200552 180.0 0,0 55.6315367227,0.5567468846" />
      <path d="M 55.6315367227,0.5567468846 A 1.7499999974111646,0.9979765045200552 180.0 0,0 55.3535075087,0.0170023127" />
      <line x1="30.9359216737" y1="15.0533472132" x2="55.1189735905" y2="1.2624228384" />
      <path d="M 25.4204887804,18.1986457548 A 1.7499999974111646,0.9979765045200552 180.0 0,0 25.9330519126,17.492969801" />
      <path d="M 25.9330519126,17.492969801 A 1.7499999974111646,0.9979765045200552 180.0 0,0 25.6550226987,16.953225229" />
      <path d="M 26.9407683618,17.6864503517 L 26.9905790561,17.7153785621" />
      <path d="M 26.9905790561,17.7153785621 Q 27.2762856651,17.884358243 27.5692586163,18.1270065008" />
      <path d="M 27.5692586163,20.5554838902 A 4.0,2.2810891565631914 180.0 0,0 27.5692586163,18.1270065008" />
      <path d="M 27.5692586163,18.1270065008 A 4.0,2.2810891565631914 180.0 0,0 31.8277110006,18.1270065008" />
      <path d="M 28.4610479432,15.0533472132 A 1.7499999974111646,0.9979765045200552 180.0 0,0 30.9359216737,15.0533472132" />
      <path d="M -4.2779960292,1.2624228381 A 1.7499999974111646,0.9979765045200552 180.0 0,0 -3.765432897,0.5567468843" />
      <path d="M -3.765432897,0.5567468843 A 1.7499999974111646,0.9979765045200552 180.0 0,0 -4.0434621109,0.0170023124" />
      <line x1="-28.4610479459" y1="15.0533472129" x2="-4.2779960292" y2="1.2624228381" />
      <line x1="1.2374368641" y1="-1.8828757035" x2="25.4204887809" y2="-15.6738000782" />
      <path d="M -1.2374368664,-1.8828757035 A 1.7499999974111646,0.9979765045200552 180.0 0,0 1.2374368641,-1.8828757035" />
      <line x1="4.2779960268" y1="1.2624228382" x2="28.4610479432" y2="15.0533472132" />
      <path d="M 4.0434621086,0.0170023125 A 1.7499999974111646,0.9979765045200552 180.0 0,0 3.7654328947,0.5567468844" />
      <path d="M 3.7654328947,0.5567468844 A 1.7499999974111646,0.9979765045200552 180.0 0,0 4.2779960268,1.2624228382" />
      <path d="M 2.7577164455,0.750227435 L 2.7079057512,0.7791556455" />
      <path d="M 2.7079057512,0.7791556455 Q 2.4221991422,0.9481353264 2.129226191,1.1907835841" />
      <path d="M -2.1292261933,1.1907835841 A 4.0,2.2810891565631914 180.0 0,0 2.129226191,1.1907835841" />
      <path d="M -2.7577164478,0.750227435 L -2.7079057535,0.7791556454" />
      <path d="M -2.7079057535,0.7791556454 Q -2.4221991445,0.9481353263 -2.1292261933,1.1907835841" />
      <path d="M -2.1292261933,3.6192609735 A 4.0,2.2810891565631914 180.0 0,0 -2.1292261933,1.1907835841" />
      <path d="M -2.1292261933,3.6192609735 Q -2.4474448283,3.7186308493 -2.7577164478,3.8955259766" />
      <line x1="-2.7577164478" y1="3.8955259766" x2="-26.9407683646" y2="17.6864503514" />
      <line x1="26.9407683623" y1="-13.0406969397" x2="2.7577164455" y2="0.750227435" />
      <line x1="2.7577164455" y1="3.8955259767" x2="26.9407683618" y2="17.6864503517" />
      <path d="M 2.129226191,3.6192609735 A 4.0,2.2810891565631914 180.0 0,0 -2.1292261933,3.6192609735" />
      <path d="M 2.129226191,3.6192609735 Q 2.447444826,3.7186308494 2.7577164455,3.8955259767" />
      <path d="M 2.129226191,1.1907835841 A 4.0,2.2810891565631914 180.0 0,0 2.129226191,3.6192609735" />
      <line x1="-2.8284271254" y1="-33.7563646603" x2="-2.8284271254" y2="-29.9365955161" />
      <line x1="-56.5685424961" y1="-3.1098660497" x2="-56.5685424961" y2="0.7099030945" />
      <line x1="2.8284271241" y1="-33.7563646603" x2="2.8284271241" y2="-29.9365955161" />
      <line x1="-26.9407683641" y1="-13.04069694" x2="-25.4204887827" y2="-15.6738000785" />
      <line x1="56.5685424938" y1="-3.1098660492" x2="56.5685424938" y2="0.709903095" />
      <line x1="-28.4610479459" y1="13.574726899" x2="-28.9560226909" y2="12.7174375093" />
      <line x1="-30.9359216764" y1="13.574726899" x2="-30.4409469314" y2="12.7174375093" />
      <line x1="1.2374368641" y1="-3.3614960173" x2="0.7424621191" y2="-4.2187854071" />
      <line x1="-1.2374368664" y1="-3.3614960174" x2="-0.7424621214" y2="-4.2187854071" />
      <line x1="1.2374368636" y1="30.5109498157" x2="0.7424621186" y2="29.653660426" />
      <line x1="-1.2374368668" y1="30.5109498157" x2="-0.7424621218" y2="29.653660426" />
      <line x1="30.9359216737" y1="13.5747268993" x2="30.4409469287" y2="12.7174375096" />
      <line x1="28.4610479432" y1="13.5747268993" x2="28.9560226882" y2="12.7174375096" />
      <line x1="-25.4204887827" y1="-15.6738000785" x2="-25.4204887827" y2="-17.0529687986" />
      <line x1="-2.7577164478" y1="0.750227435" x2="-1.2374368664" y2="-1.8828757035" />
      <line x1="-56.6383691526" y1="3.8939948632" x2="-55.1189735928" y2="1.2624228379" />
      <line x1="-32.4562012578" y1="17.6864503514" x2="-30.9359216764" y2="15.0533472129" />
      <line x1="-26.9407683646" y1="17.6864503514" x2="-28.4610479459" y2="15.0533472129" />
      <line x1="-26.9407683646" y1="20.831748893" x2="-25.4204887832" y2="18.1986457546" />
      <line x1="-2.7568324266" y1="34.6211421548" x2="-1.2374368668" y2="31.9895701296" />
      <line x1="26.9407683623" y1="-13.0406969397" x2="25.4204887809" y2="-15.6738000782" />
      <line x1="26.9407683618" y1="20.8317488933" x2="25.4204887804" y2="18.1986457548" />
      <line x1="2.7568324234" y1="34.6211421549" x2="1.2374368636" y2="31.9895701296" />
      <line x1="56.6383691502" y1="3.8939948637" x2="55.1189735905" y2="1.2624228384" />
      <line x1="32.4562012551" y1="17.6864503517" x2="30.9359216737" y2="15.0533472132" />
      <line x1="26.9407683618" y1="17.6864503517" x2="28.4610479432" y2="15.0533472132" />
      <line x1="-55.1189735928" y1="1.2624228379" x2="-55.1189735928" y2="-0.1167458822" />
      <line x1="-4.2779960292" y1="1.2624228381" x2="-4.2779960292" y2="-0.116745882" />
      <line x1="-28.4610479459" y1="15.0533472129" x2="-28.4610479459" y2="13.574726899" />
      <line x1="-30.9359216764" y1="15.0533472129" x2="-30.9359216764" y2="13.574726899" />
      <line x1="25.4204887809" y1="-15.6738000782" x2="25.4204887809" y2="-17.0529687984" />
      <line x1="1.2374368641" y1="-1.8828757035" x2="1.2374368641" y2="-3.3614960173" />
      <line x1="-1.2374368664" y1="-1.8828757035" x2="-1.2374368664" y2="-3.3614960174" />
      <line x1="25.4204887804" y1="18.1986457548" x2="25.4204887804" y2="16.8194770346" />
      <line x1="1.2374368636" y1="31.9895701296" x2="1.2374368636" y2="30.5109498157" />
      <line x1="-1.2374368668" y1="31.9895701296" x2="-1.2374368668" y2="30.5109498157" />
      <line x1="-25.4204887832" y1="18.1986457546" x2="-25.4204887832" y2="16.8194770344" />
      <line x1="55.1189735905" y1="1.2624228384" x2="55.1189735905" y2="-0.1167458818" />
      <line x1="30.9359216737" y1="15.0533472132" x2="30.9359216737" y2="13.5747268993" />
      <line x1="28.4610479432" y1="15.0533472132" x2="28.4610479432" y2="13.5747268993" />
      <line x1="4.2779960268" y1="1.2624228382" x2="4.2779960268" y2="-0.116745882" />
      <line x1="2.7577164455" y1="0.750227435" x2="1.2374368641" y2="-1.8828757035" />
      <line x1="-2.7577164478" y1="3.8955259766" x2="-4.2779960292" y2="1.2624228381" />
      <line x1="2.7577164455" y1="3.8955259767" x2="4.2779960268" y2="1.2624228382" />
      <line x1="-57.7401153713" y1="-1.4968924386" x2="-57.7401153713" y2="2.2888508952" />
      <line x1="57.740115369" y1="-1.4968924381" x2="57.740115369" y2="2.2888508957" />
    </g>
  </g>
</svg>