<?xml version='1.0' encoding='utf-8'?>
<svg width="512.9999999999mm" height="345.4246701922mm" viewBox="-57.6024007518 -43.0537545052 115.2048015035 77.572281801" version="1.1" xmlns="http://www.w3.org/2000/svg">
  <g transform="scale(1,-1)" stroke-linecap="round">
    <g fill="none" stroke="rgb(64,192,64)" stroke-width="0.2245707631647563" id="Visible">
      <line x1="-53.0125047349" y1="7.9303295742" x2="-1.9445436483" y2="36.4587519034" />
      <line x1="-0.8131727984" y1="37.1537872154" x2="-53.0689013139" y2="7.9618347565" />
      <path d="M 1.9445436483,36.4587519034 A 2.75,1.5362501211337576 0.0 0,1 -1.9445436483,36.4587519034" />
      <path d="M 0.8131727984,37.1537872154 A 1.1500000000000001,0.6424318688377533 0.0 0,1 -0.8131727984,37.1537872154" />
      <line x1="-0.8131727984" y1="38.1490824099" x2="-53.9597268856" y2="8.4594823537" />
      <line x1="1.9445436483" y1="36.4587519034" x2="53.0125047349" y2="7.9303295742" />
      <line x1="53.0689013139" y1="7.9618347565" x2="0.8131727984" y2="37.1537872154" />
      <path d="M 0.8131727984,38.1490824099 A 1.1500000000000001,0.6424318688377533 0.0 0,1 -0.8131727984,38.1490824099" />
      <line x1="-54.9743498826" y1="9.0262876999" x2="-1.3081475452" y2="39.0061821878" />
      <path d="M -55.3456385599,9.2337030728 A 1.8499999999999983,1.0334773542172542 180.0 0,0 -55.5901153702,9.7471611352" />
      <path d="M -55.5901153702,9.7471611352 A 1.8499999999999983,1.0334773542172542 180.0 0,0 -55.0482629154,10.4779399805" />
      <line x1="53.9597268856" y1="8.4594823537" x2="0.8131727984" y2="38.1490824099" />
      <path d="M -1.3081475452,39.0061821878 A 1.8499999999999983,1.0334773542172542 180.0 0,0 1.3081475452,39.0061821878" />
      <line x1="-55.0482629154" y1="10.4779399805" x2="-1.3081475452" y2="40.4991249795" />
      <path d="M -55.9675017309,9.5810984808 A 3.1500000000000012,1.7597046842077595 180.0 0,0 -56.068461757,9.64017925" />
      <path d="M -56.068461757,9.64017925 A 3.1500000000000012,1.7597046842077595 180.0 0,0 -55.9675017309,12.069696711" />
      <line x1="1.3081475452" y1="39.0061821878" x2="54.9743498826" y2="9.0262876999" />
      <path d="M -1.3081475452,40.4991249795 A 1.8499999999999983,1.0334773542172542 180.0 0,0 1.3081475452,40.4991249795" />
      <line x1="-55.9675017309" y1="12.069696711" x2="-2.2273863607" y2="42.0908817099" />
      <line x1="-2.2273863607" y1="-20.4400865182" x2="-55.9675017309" y2="9.5810984808" />
      <line x1="-56.3917657996" y1="12.3067060662" x2="-2.6516504294" y2="42.3278910652" />
      <path d="M -56.3917657996,12.3067060662 A 3.75,2.0948865288187606 0.0 0,1 -57.4901153702,10.8253975959" />
      <path d="M -57.4901153702,10.8253975959 A 3.75,2.0948865288187606 0.0 0,1 -56.3917657996,9.3440891255" />
      <path d="M 2.6516504294,42.3278910652 A 3.75,2.0948865288187606 0.0 0,1 -2.6516504294,42.3278910652" />
      <line x1="-56.3917657996" y1="9.3440891255" x2="-2.6516504294" y2="-20.6770958735" />
      <line x1="2.6516504294" y1="42.3278910652" x2="56.3917657996" y2="12.3067060662" />
      <path d="M -2.6516504294,-20.6770958735 A 3.75,2.0948865288187606 0.0 0,1 2.6516504294,-20.6770958735" />
      <path d="M 56.3917657996,9.3440891255 A 3.75,2.0948865288187606 0.0 0,1 57.4901153702,10.8253975959" />
      <path d="M 57.4901153702,10.8253975959 A 3.75,2.0948865288187606 0.0 0,1 56.3917657996,12.3067060662" />
      <line x1="2.6516504294" y1="-20.6770958735" x2="56.3917657996" y2="9.3440891255" />
      <path d="M 2.2273863607,-20.4400865182 A 3.1500000000000012,1.7597046842077595 180.0 0,0 -2.2273863607,-20.4400865182" />
      <line x1="55.9675017309" y1="9.5810984808" x2="2.2273863607" y2="-20.4400865182" />
      <path d="M 55.9675017309,12.069696711 A 3.1500000000000012,1.7597046842077595 180.0 0,0 56.068461757,9.64017925" />
      <path d="M 56.068461757,9.64017925 A 3.1500000000000012,1.7597046842077595 180.0 0,0 55.9675017309,9.5810984808" />
      <line x1="2.2273863607" y1="42.0908817099" x2="55.9675017309" y2="12.069696711" />
      <path d="M -2.2273863607,42.0908817099 A 3.1500000000000012,1.7597046842077595 180.0 0,0 2.2273863607,42.0908817099" />
      <line x1="1.3081475452" y1="40.4991249795" x2="55.0482629154" y2="10.4779399805" />
      <path d="M -57.4901153702,0.0015623558 A 3.75,2.0948865288187606 0.0 0,1 -56.5119563069,-1.4094118655" />
      <path d="M -56.5119563069,-1.4094118655 A 3.75,2.0948865288187606 0.0 0,1 -56.3917657996,-1.4797461145" />
      <line x1="-56.3917657996" y1="-1.4797461145" x2="-56.3917657996" y2="9.3440891255" />
      <line x1="-56.3917657996" y1="-1.4797461145" x2="-32.3501352393" y2="-14.9102762457" />
      <path d="M -31.365884255,-15.2527615143 C -31.7081210172,-15.2008410673 -32.0291531316,-15.0891330053 -32.3501352393,-14.9102762457" />
      <line x1="-31.365884255" y1="-15.2527615143" x2="-27.677531974" y2="-17.3132093828" />
      <path d="M -26.6932809898,-18.0704009824 L -26.8164605589,-17.9982342391" />
      <path d="M -26.8164605589,-17.9982342391 C -27.0967087395,-17.8261057986 -27.3790366452,-17.6014999997 -27.677531974,-17.3132093828" />
      <line x1="-26.6932809898" y1="-18.0704009824" x2="-2.6516504294" y2="-31.5009311135" />
      <line x1="-2.6516504294" y1="-31.5009311135" x2="-2.6516504294" y2="-20.6770958735" />
      <line x1="2.6516504294" y1="-31.5009311135" x2="2.6516504294" y2="-20.6770958735" />
      <path d="M -2.6516504294,-31.5009311135 A 3.75,2.0948865288187606 0.0 0,1 2.6516504294,-31.5009311135" />
      <path d="M 56.3917657996,-1.4797461145 A 3.75,2.0948865288187606 0.0 0,1 56.5119563069,-1.4094118655" />
      <path d="M 56.5119563069,-1.4094118655 A 3.75,2.0948865288187606 0.0 0,1 57.4901153702,0.0015623558" />
      <line x1="56.3917657996" y1="-1.4797461145" x2="56.3917657996" y2="9.3440891255" />
      <line x1="32.3501352393" y1="-14.9102762457" x2="56.3917657996" y2="-1.4797461145" />
      <path d="M 32.3501352393,-14.9102762457 C 32.0291531316,-15.0891330053 31.7081210172,-15.2008410673 31.365884255,-15.2527615143" />
      <line x1="27.677531974" y1="-17.3132093828" x2="31.365884255" y2="-15.2527615143" />
      <path d="M 27.677531974,-17.3132093828 C 27.3790366452,-17.6014999997 27.0967087395,-17.8261057986 26.8164605589,-17.9982342391" />
      <path d="M 26.8164605589,-17.9982342391 L 26.6932809898,-18.0704009824" />
      <line x1="2.6516504294" y1="-31.5009311135" x2="26.6932809898" y2="-18.0704009824" />
      <path d="M 55.0482629154,10.4779399805 A 1.8499999999999983,1.0334773542172542 180.0 0,0 55.5901153702,9.7471611352" />
      <path d="M 55.5901153702,9.7471611352 A 1.8499999999999983,1.0334773542172542 180.0 0,0 55.3456385599,9.2337030728" />
      <path d="M -54.9227674771,-2.3836905514 A 1.5999999647164498,0.8938182325853287 0.0 0,1 -54.8714861951,-2.4136998303" />
      <line x1="-54.8714861951" y1="-2.4136998303" x2="-30.8298556348" y2="-15.8442299615" />
      <path d="M -30.8298556348,-15.8442299615 A 1.5999999647164498,0.8938182325853287 0.0 0,1 -29.8452266941,-16.1022561914" />
      <path d="M -25.2242826673,-18.9743454192 A 1.5999999647164498,0.8938182325853287 0.0 0,1 -25.1730013853,-19.0043546982" />
      <line x1="-25.1730013853" y1="-19.0043546982" x2="-1.1313708249" y2="-32.4348848293" />
      <path d="M -1.1313708249,-32.4348848293 A 1.5999999647164498,0.8938182325853287 0.0 0,1 1.1313708249,-32.4348848293" />
      <path d="M 54.8714861951,-2.4136998303 A 1.5999999647164498,0.8938182325853287 0.0 0,1 54.9227674771,-2.3836905514" />
      <line x1="30.8298556348" y1="-15.8442299615" x2="54.8714861951" y2="-2.4136998303" />
      <path d="M 29.8452266941,-16.1022561914 A 1.5999999647164498,0.8938182325853287 0.0 0,1 30.8298556348,-15.8442299615" />
      <path d="M 25.1730013853,-19.0043546982 A 1.5999999647164498,0.8938182325853287 0.0 0,1 25.2242826673,-18.9743454192" />
      <line x1="1.1313708249" y1="-32.4348848293" x2="25.1730013853" y2="-19.0043546982" />
      <path d="M -55.3401153349,-3.2746176887 A 1.5999999647164498,0.8938182325853287 0.0 0,1 -54.9227674771,-3.8766333431" />
      <path d="M -54.9227674771,-3.8766333431 A 1.5999999647164498,0.8938182325853287 0.0 0,1 -54.8714861951,-3.9066426221" />
      <line x1="-54.8714861951" y1="-3.9066426221" x2="-30.8298556348" y2="-17.3371727532" />
      <path d="M -30.8298556348,-17.3371727532 A 1.5999999647164498,0.8938182325853287 0.0 0,1 -28.5671139849,-17.3371727532" />
      <path d="M -25.6416305251,-19.8652725565 A 1.5999999647164498,0.8938182325853287 0.0 0,1 -25.2242826673,-20.467288211" />
      <path d="M -25.2242826673,-20.467288211 A 1.5999999647164498,0.8938182325853287 0.0 0,1 -25.1730013853,-20.4972974899" />
      <line x1="-25.1730013853" y1="-20.4972974899" x2="-1.1313708249" y2="-33.927827621" />
      <path d="M -1.1313708249,-33.927827621 A 1.5999999647164498,0.8938182325853287 0.0 0,1 1.1313708249,-33.927827621" />
      <path d="M 54.8714861951,-3.9066426221 A 1.5999999647164498,0.8938182325853287 0.0 0,1 54.9227674771,-3.8766333431" />
      <path d="M 54.9227674771,-3.8766333431 A 1.5999999647164498,0.8938182325853287 0.0 0,1 55.3401153349,-3.2746176887" />
      <line x1="30.8298556348" y1="-17.3371727532" x2="54.8714861951" y2="-3.9066426221" />
      <path d="M 28.5671139849,-17.3371727532 A 1.5999999647164498,0.8938182325853287 0.0 0,1 30.8298556348,-17.3371727532" />
      <path d="M 25.1730013853,-20.4972974899 A 1.5999999647164498,0.8938182325853287 0.0 0,1 25.2242826673,-20.467288211" />
      <path d="M 25.2242826673,-20.467288211 A 1.5999999647164498,0.8938182325853287 0.0 0,1 25.6416305251,-19.8652725565" />
      <line x1="1.1313708249" y1="-33.927827621" x2="25.1730013853" y2="-20.4972974899" />
      <path d="M -54.3568538705,-4.2227968153 A 0.8000000000000004,0.44690912614800243 0.0 0,1 -54.3314414367,-4.2391556229" />
      <path d="M -54.3314414367,-4.2391556229 A 0.8000000000000004,0.44690912614800243 0.0 0,1 -54.3058007951,-4.2541602627" />
      <line x1="-54.3058007951" y1="-4.2541602627" x2="-30.2641702348" y2="-17.6846903938" />
      <line x1="-28.5671139849" y1="-17.3371727532" x2="-28.1008748872" y2="-17.0767146185" />
      <path d="M -30.2641702348,-17.6846903938 A 0.8000000000000004,0.44690912614800243 0.0 0,1 -29.1327993849,-17.6846903938" />
      <path d="M -24.6583690607,-20.8134516831 A 0.8000000000000004,0.44690912614800243 0.0 0,1 -24.6329566268,-20.8298104908" />
      <path d="M -24.6329566268,-20.8298104908 A 0.8000000000000004,0.44690912614800243 0.0 0,1 -24.6073159853,-20.8448151306" />
      <line x1="-24.6073159853" y1="-20.8448151306" x2="-0.5656854249" y2="-34.2753452617" />
      <path d="M -0.5656854249,-34.2753452617 A 0.8000000000000004,0.44690912614800243 0.0 0,1 0.5656854249,-34.2753452617" />
      <path d="M 54.3058007951,-4.2541602627 A 0.8000000000000004,0.44690912614800243 0.0 0,1 54.3314414367,-4.2391556229" />
      <path d="M 54.3314414367,-4.2391556229 A 0.8000000000000004,0.44690912614800243 0.0 0,1 54.3568538705,-4.2227968153" />
      <line x1="30.2641702348" y1="-17.6846903938" x2="54.3058007951" y2="-4.2541602627" />
      <line x1="28.1008748872" y1="-17.0767146185" x2="28.5671139849" y2="-17.3371727532" />
      <path d="M 29.1327993849,-17.6846903938 A 0.8000000000000004,0.44690912614800243 0.0 0,1 30.2641702348,-17.6846903938" />
      <path d="M 24.6073159853,-20.8448151306 A 0.8000000000000004,0.44690912614800243 0.0 0,1 24.6329566268,-20.8298104908" />
      <path d="M 24.6329566268,-20.8298104908 A 0.8000000000000004,0.44690912614800243 0.0 0,1 24.6583690607,-20.8134516831" />
      <line x1="0.5656854249" y1="-34.2753452617" x2="24.6073159853" y2="-20.8448151306" />
      <line x1="-29.1327993849" y1="-17.6846903938" x2="-28.0726765989" y2="-17.092467209" />
      <line x1="28.0726765989" y1="-17.092467209" x2="29.1327993849" y2="-17.6846903938" />
      <line x1="-1.9445436483" y1="33.887572651" x2="-50.7112053413" y2="6.644739948" />
      <line x1="-1.9445436483" y1="33.887572651" x2="-1.9445436483" y2="36.4587519034" />
      <path d="M -1.9445436483,33.887572651 A 1.1,0.6451316495300174 119.18931545063111 0,1 -1.166726189,32.5407015714" />
      <line x1="-1.166726189" y1="32.5407015714" x2="-49.1167977746" y2="5.7540458325" />
      <line x1="-1.9445436483" y1="36.4587519034" x2="-0.8131727984" y2="37.1537872154" />
      <line x1="1.9445436483" y1="33.887572651" x2="1.9445436483" y2="36.4587519034" />
      <path d="M 1.9445436483,33.887572651 A 2.75,1.5362501211337576 0.0 0,1 -1.9445436483,33.887572651" />
      <path d="M 1.166726189,32.5407015714 A 1.65,0.9217500726802546 0.0 0,1 -1.166726189,32.5407015714" />
      <line x1="49.1167977746" y1="5.7540458325" x2="1.166726189" y2="32.5407015714" />
      <path d="M 1.9445436483,33.887572651 A 1.1,0.6451316495300174 60.810684549368894 0,0 1.166726189,32.5407015714" />
      <line x1="1.9445436483" y1="36.4587519034" x2="0.8131727984" y2="37.1537872154" />
      <line x1="-0.8131727984" y1="37.1537872154" x2="-0.8131727984" y2="38.1490824099" />
      <line x1="50.7112053413" y1="6.644739948" x2="1.9445436483" y2="33.887572651" />
      <line x1="0.8131727984" y1="37.1537872154" x2="0.8131727984" y2="38.1490824099" />
      <line x1="-0.8131727984" y1="38.1490824099" x2="-1.3081475452" y2="39.0061821878" />
      <line x1="-55.0482629154" y1="9.0675782111" x2="-55.0482629154" y2="10.4779399805" />
      <line x1="0.8131727984" y1="38.1490824099" x2="1.3081475452" y2="39.0061821878" />
      <line x1="-1.3081475452" y1="39.0061821878" x2="-1.3081475452" y2="40.4991249795" />
      <line x1="-55.0482629154" y1="10.4779399805" x2="-55.9675017309" y2="12.069696711" />
      <line x1="1.3081475452" y1="39.0061821878" x2="1.3081475452" y2="40.4991249795" />
      <line x1="-1.3081475452" y1="40.4991249795" x2="-2.2273863607" y2="42.0908817099" />
      <line x1="55.0482629154" y1="9.0675782111" x2="55.0482629154" y2="10.4779399805" />
      <line x1="1.3081475452" y1="40.4991249795" x2="2.2273863607" y2="42.0908817099" />
      <line x1="55.0482629154" y1="10.4779399805" x2="55.9675017309" y2="12.069696711" />
      <line x1="-56.3917657996" y1="-1.4797461145" x2="-54.8714861951" y2="-2.4136998303" />
      <line x1="-32.3501352393" y1="-14.9102762457" x2="-30.8298556348" y2="-15.8442299615" />
      <line x1="-26.6932809898" y1="-18.0704009824" x2="-25.1730013853" y2="-19.0043546982" />
      <line x1="-2.6516504294" y1="-31.5009311135" x2="-1.1313708249" y2="-32.4348848293" />
      <line x1="2.6516504294" y1="-31.5009311135" x2="1.1313708249" y2="-32.4348848293" />
      <line x1="56.3917657996" y1="-1.4797461145" x2="54.8714861951" y2="-2.4136998303" />
      <line x1="32.3501352393" y1="-14.9102762457" x2="30.8298556348" y2="-15.8442299615" />
      <line x1="26.6932809898" y1="-18.0704009824" x2="25.1730013853" y2="-19.0043546982" />
      <line x1="-54.8714861951" y1="-2.4136998303" x2="-54.8714861951" y2="-3.9066426221" />
      <line x1="-30.8298556348" y1="-15.8442299615" x2="-30.8298556348" y2="-17.3371727532" />
      <line x1="-28.5671139849" y1="-16.8162564839" x2="-28.5671139849" y2="-17.3371727532" />
      <line x1="-25.1730013853" y1="-19.0043546982" x2="-25.1730013853" y2="-20.4972974899" />
      <line x1="-1.1313708249" y1="-32.4348848293" x2="-1.1313708249" y2="-33.927827621" />
      <line x1="1.1313708249" y1="-32.4348848293" x2="1.1313708249" y2="-33.927827621" />
      <line x1="54.8714861951" y1="-2.4136998303" x2="54.8714861951" y2="-3.9066426221" />
      <line x1="30.8298556348" y1="-15.8442299615" x2="30.8298556348" y2="-17.3371727532" />
      <line x1="28.5671139849" y1="-16.8162564839" x2="28.5671139849" y2="-17.3371727532" />
      <line x1="25.1730013853" y1="-19.0043546982" x2="25.1730013853" y2="-20.4972974899" />
      <line x1="-54.8714861951" y1="-3.9066426221" x2="-54.3058007951" y2="-4.2541602627" />
      <line x1="-30.8298556348" y1="-17.3371727532" x2="-30.2641702348" y2="-17.6846903938" />
      <line x1="-28.5671139849" y1="-17.3371727532" x2="-29.1327993849" y2="-17.6846903938" />
      <line x1="-25.1730013853" y1="-20.4972974899" x2="-24.6073159853" y2="-20.8448151306" />
      <line x1="-1.1313708249" y1="-33.927827621" x2="-0.5656854249" y2="-34.2753452617" />
      <line x1="1.1313708249" y1="-33.927827621" x2="0.5656854249" y2="-34.2753452617" />
      <line x1="54.8714861951" y1="-3.9066426221" x2="54.3058007951" y2="-4.2541602627" />
      <line x1="30.8298556348" y1="-17.3371727532" x2="30.2641702348" y2="-17.6846903938" />
      <line x1="28.5671139849" y1="-17.3371727532" x2="29.1327993849" y2="-17.6846903938" />
      <line x1="25.1730013853" y1="-20.4972974899" x2="24.6073159853" y2="-20.8448151306" />
      <line x1="-57.4901153702" y1="0.0015623558" x2="-57.4901153702" y2="10.8253975959" />
      <line x1="57.4901153702" y1="10.8253975959" x2="57.4901153702" y2="0.0015623558" />
      <line x1="-54.9227674771" y1="-2.3836905514" x2="-56.5119563069" y2="-1.4094118655" />
      <line x1="-25.2242826673" y1="-18.9743454192" x2="-26.8164606441" y2="-17.9982341869" />
      <line x1="54.9227674771" y1="-2.3836905514" x2="56.5119563069" y2="-1.4094118655" />
      <line x1="25.2242826673" y1="-18.9743454192" x2="26.8164606441" y2="-17.9982341869" />
      <line x1="-55.3401153349" y1="-3.2746176887" x2="-55.3401153349" y2="-2.1278284947" />
      <line x1="-25.6416305251" y1="-19.8652725565" x2="-25.6416305251" y2="-18.7184833625" />
      <line x1="55.3401153349" y1="-3.2746176887" x2="55.3401153349" y2="-2.1278284947" />
      <line x1="25.6416305251" y1="-19.8652725565" x2="25.6416305251" y2="-18.7184833625" />
      <line x1="-54.3314414367" y1="-4.2391556229" x2="-54.9227674771" y2="-3.8766333431" />
      <line x1="-24.6329566268" y1="-20.8298104908" x2="-25.2242826673" y2="-20.467288211" />
      <line x1="54.3314414367" y1="-4.2391556229" x2="54.9227674771" y2="-3.8766333431" />
      <line x1="24.6329566268" y1="-20.8298104908" x2="25.2242826673" y2="-20.467288211" />
    </g>
  </g>
</svg>