<?xml version='1.0' encoding='utf-8'?>
<svg width="512.9999999999mm" height="458.5352740022mm" viewBox="-35.8594533569 -42.6231700235 85.5068158075 76.4286378467" version="1.1" xmlns="http://www.w3.org/2000/svg">
  <g transform="scale(1,-1)" stroke-linecap="round">
    <g fill="none" stroke="rgb(64,192,64)" stroke-width="0.16667995284116371" id="Visible">
      <line x1="43.7353419832" y1="-33.3121518846" x2="-34.5247175278" y2="-8.5704571838" />
      <line x1="43.7353419832" y1="-30.8035014565" x2="-34.5247175278" y2="-6.0618067557" />
      <path d="M -34.5247175278,-8.5704571838 A 2.5,1.370997464747523 180.0 0,0 -35.1634292793,-8.2818101845" />
      <path d="M -35.1634292793,-8.2818101845 A 2.5,1.370997464747523 180.0 0,0 -35.7761133805,-7.3826969272" />
      <path d="M -34.5247175278,-6.0618067557 A 2.5,1.370997464747523 180.0 0,0 -35.7761133805,-4.8740464991" />
      <path d="M -35.7761133805,-4.8740464991 A 2.5,1.370997464747523 180.0 0,0 -35.4419821861,-4.1893132509" />
      <line x1="44.2347836421" y1="-33.6732645913" x2="-34.0252758688" y2="-8.9315698905" />
      <line x1="44.2347836421" y1="-29.4921805445" x2="-34.0252758688" y2="-4.7504858437" />
      <path d="M 46.0116572851,-32.9768005457 A 1.6666666666666667,0.913998309831682 180.0 0,0 45.8259553473,-33.1197205518" />
      <path d="M 45.8259553473,-33.1197205518 A 1.6666666666666667,0.913998309831682 180.0 0,0 43.7353419832,-33.3121518846" />
      <path d="M 46.0116572851,-30.4681501176 A 1.6666666666666667,0.913998309831682 180.0 0,0 43.7353419832,-30.8035014565" />
      <path d="M -34.0252758688,-8.9315698905 A 1.5,0.8225984788485137 180.0 0,0 -34.4085029198,-8.758381691" />
      <path d="M -34.0252758688,-4.7504858437 A 1.5,0.8225984788485137 180.0 0,0 -34.5756346638,-3.6269897408" />
      <line x1="-35.4419821861" y1="-4.1893132509" x2="9.6742476703" y2="38.7284240213" />
      <path d="M 45.0710289877,-33.5962920582 A 0.6666666666666667,0.3655993239326728 180.0 0,0 44.2347836421,-33.6732645913" />
      <line x1="46.788802219" y1="-30.6808918943" x2="47.746593937" y2="-31.0645992316" />
      <path d="M 45.1453097629,-29.3580400089 A 0.6666666666666667,0.3655993239326728 180.0 0,0 44.2347836421,-29.4921805445" />
      <line x1="-24.3984837027" y1="-2.7299594678" x2="48.2303169135" y2="-25.6913477234" />
      <line x1="17.4713753706" y1="37.0996011372" x2="-24.3984837027" y2="-2.7299594678" />
      <path d="M 17.2267714618,37.5989327385 A 0.6666666666666667,0.3655993239326728 180.0 0,0 17.3970945955,37.5219602054" />
      <path d="M 17.3970945955,37.5219602054 A 0.6666666666666667,0.3655993239326728 180.0 0,0 17.4713753706,37.0996011372" />
      <line x1="15.0020683813" y1="38.3022662749" x2="17.2267714618" y2="37.5989327385" />
      <line x1="15.2982113418" y1="38.666755291" x2="15.0020683813" y2="38.3022662749" />
      <path d="M 15.574185713,38.9292815613 A 2.666666666666667,1.462397295730691 -1.9017524198526504e-15 0,1 15.2982113418,38.666755291" />
      <line x1="19.1052146743" y1="41.6033549256" x2="15.574185713" y2="38.9292815613" />
      <path d="M 18.8982157805,42.1345196562 A 0.6666666666666667,0.3655993239326728 180.0 0,0 19.0685389143,42.0575471231" />
      <path d="M 19.0685389143,42.0575471231 A 0.6666666666666667,0.3655993239326728 180.0 0,0 19.1052146743,41.6033549256" />
      <line x1="17.7707435374" y1="42.4909667915" x2="18.8982157805" y2="42.1345196562" />
      <path d="M 16.828828839,42.3230278177 A 0.6666666666666667,0.3655993239326728 180.0 0,0 16.9344981918,42.4139942584" />
      <path d="M 16.9344981918,42.4139942584 A 0.6666666666666667,0.3655993239326728 180.0 0,0 17.7707435374,42.4909667915" />
      <line x1="14.3785647512" y1="39.3072737198" x2="16.828828839" y2="42.3230278177" />
      <path d="M 14.10259038,39.0447474494 A 2.666666666666667,1.462397295730691 -5.705257259557952e-15 0,1 14.3785647512,39.3072737198" />
      <line x1="13.6758243938" y1="38.7215545306" x2="14.10259038" y2="39.0447474494" />
      <line x1="11.4511213133" y1="39.424888067" x2="13.6758243938" y2="38.7215545306" />
      <path d="M 10.5405951926,39.2907475314 A 0.6666666666666667,0.3655993239326728 180.0 0,0 10.6148759677,39.3479155338" />
      <path d="M 10.6148759677,39.3479155338 A 0.6666666666666667,0.3655993239326728 180.0 0,0 11.4511213133,39.424888067" />
      <line x1="-34.5756346638" y1="-3.6269897408" x2="10.5405951926" y2="39.2907475314" />
      <line x1="45.8736366483" y1="-28.6652041488" x2="45.1453097629" y2="-29.3580400089" />
      <line x1="45.8736366483" y1="-28.6652041488" x2="41.144599728" y2="-27.5226091548" />
      <path d="M 41.144599728,-27.5226091548 A 1.8166666666666667,0.9962581577165333 180.0 0,0 40.0603800696,-26.6109135038" />
      <path d="M 40.0603800696,-26.6109135038 A 1.8166666666666667,0.9962581577165333 180.0 0,0 40.3031820708,-26.1133406768" />
      <line x1="40.3031820708" y1="-26.1133406768" x2="40.9282789461" y2="-25.5187044772" />
      <path d="M 40.9282789461,-25.5187044772 A 1.8166666666666667,0.9962581577165333 180.0 0,0 43.5737691765,-25.2118119869" />
      <line x1="43.5737691765" y1="-25.2118119869" x2="47.746593937" y2="-26.8835151848" />
      <line x1="48.4749208224" y1="-26.1906793246" x2="47.746593937" y2="-26.8835151848" />
      <path d="M 48.2303169135,-25.6913477234 A 0.6666666666666667,0.3655993239326728 180.0 0,0 48.4006400472,-25.7683202565" />
      <path d="M 48.4006400472,-25.7683202565 A 0.6666666666666667,0.3655993239326728 180.0 0,0 48.4749208224,-26.1906793246" />
      <line x1="-13.0071060557" y1="15.2434784759" x2="-8.6753684444" y2="13.8740119796" />
      <line x1="-8.6753684444" y1="13.8740119796" x2="-13.3384455447" y2="12.1832247145" />
      <line x1="-13.3384455447" y1="12.1832247145" x2="-13.0071060557" y2="15.2434784759" />
      <line x1="-4.51335462" y1="17.8332128349" x2="-8.8450922313" y2="19.2026793313" />
      <line x1="-8.8450922313" y1="19.2026793313" x2="-4.182015131" y2="20.8934665963" />
      <line x1="-4.182015131" y1="20.8934665963" x2="-4.51335462" y2="17.8332128349" />
      <line x1="46.788802219" y1="-32.2375255176" x2="46.0116572851" y2="-32.9768005457" />
      <line x1="46.788802219" y1="-29.7288750895" x2="46.788802219" y2="-32.2375255176" />
      <line x1="46.788802219" y1="-29.7288750895" x2="46.0116572851" y2="-30.4681501176" />
      <path d="M 9.6742476703,38.7284240213 A 1.6666666666666667,0.913998309831682 180.0 0,0 9.8599496082,38.8713440274" />
      <path d="M 49.5640224742,-29.3529510293 A 1.6666666666666667,0.913998309831682 180.0 0,0 49.3412683447,-29.8094398614" />
      <line x1="49.3412683447" y1="-29.8094398614" x2="48.5641234108" y2="-30.5487148894" />
      <path d="M 48.5641234108,-30.5487148894 Q 48.4790960993,-30.6038997758 48.3998168597,-30.6537655506" />
      <line x1="48.3998168597" y1="-30.6537655506" x2="47.746593937" y2="-31.0645992316" />
      <line x1="48.3998168597" y1="-27.8177328617" x2="47.746593937" y2="-26.8835151848" />
      <line x1="45.8736366483" y1="-28.6652041488" x2="46.6139302135" y2="-29.5165940946" />
      <path d="M 18.5604770225,33.9373294326 A 1.6666666666666667,0.913998309831682 180.0 0,0 18.3377228929,33.4808406005" />
      <line x1="18.3377228929" y1="33.4808406005" x2="-20.8930161448" y2="-3.8382030424" />
      <path d="M 46.6139302135,-29.5165940946 Q 46.7037476606,-29.6199193049 46.788802219,-29.7288750895" />
      <path d="M 49.1555664068,-26.2448917629 A 1.6666666666666667,0.913998309831682 180.0 0,0 49.5640224742,-26.8443006012" />
      <path d="M 49.5640224742,-26.8443006012 A 1.6666666666666667,0.913998309831682 180.0 0,0 49.3412683447,-27.3007894333" />
      <line x1="49.3412683447" y1="-27.3007894333" x2="48.5641234108" y2="-28.0400644613" />
      <path d="M 48.5641234108,-28.0400644613 Q 48.4790960993,-27.9310827576 48.3998168597,-27.8177328617" />
      <path d="M 18.152020955,37.0453886989 A 1.6666666666666667,0.913998309831682 180.0 0,0 18.5604770225,36.4459798607" />
      <path d="M 18.5604770225,36.4459798607 A 1.6666666666666667,0.913998309831682 180.0 0,0 18.3377228929,35.9894910286" />
      <line x1="18.3377228929" y1="35.9894910286" x2="-22.8723561716" y2="-3.2124403359" />
      <line x1="-13.0071060557" y1="14.5745050284" x2="-13.0071060557" y2="15.2434784759" />
      <line x1="-13.0071060557" y1="14.5745050284" x2="-9.6609826784" y2="13.5166376623" />
      <line x1="-13.2630548017" y1="12.2105606786" x2="-13.0071060557" y2="14.5745050284" />
      <line x1="-7.8594779972" y1="18.8910802011" x2="-4.2574058739" y2="20.1971571848" />
      <line x1="48.5641234108" y1="-28.0400644613" x2="48.5641234108" y2="-30.5487148894" />
      <line x1="19.9151546738" y1="37.936844695" x2="18.4243106533" y2="36.8078179072" />
      <path d="M 20.2319213412,38.4729163503 A 1.6666666666666667,0.913998309831682 180.0 0,0 19.9151546738,37.936844695" />
      <line x1="13.525842188" y1="38.7689709773" x2="15.9153984502" y2="41.7100066501" />
      <line x1="19.9151546738" y1="40.4454951231" x2="16.4716106049" y2="37.8376746905" />
      <path d="M 19.8234652738,41.5809756167 A 1.6666666666666667,0.913998309831682 180.0 0,0 20.2319213412,40.9815667784" />
      <path d="M 20.2319213412,40.9815667784 A 1.6666666666666667,0.913998309831682 180.0 0,0 19.9151546738,40.4454951231" />
      <path d="M 15.9153984502,41.7100066501 A 1.6666666666666667,0.913998309831682 180.0 0,0 16.1795718322,41.937422752" />
      <line x1="-34.5247175278" y1="-8.5704571838" x2="-34.5247175278" y2="-6.0618067557" />
      <line x1="43.7353419832" y1="-33.3121518846" x2="43.7353419832" y2="-30.8035014565" />
      <line x1="44.2347836421" y1="-33.6732645913" x2="43.7353419832" y2="-33.3121518846" />
      <line x1="-34.0252758688" y1="-8.9315698905" x2="-34.5247175278" y2="-8.5704571838" />
      <line x1="44.2347836421" y1="-29.4921805445" x2="43.7353419832" y2="-30.8035014565" />
      <line x1="-34.0252758688" y1="-4.7504858437" x2="-34.5247175278" y2="-6.0618067557" />
      <line x1="46.0116572851" y1="-32.9768005457" x2="46.0116572851" y2="-30.4681501176" />
      <line x1="-34.5756346638" y1="-3.6269897408" x2="-35.4419821861" y2="-4.1893132509" />
      <line x1="45.1453097629" y1="-29.3580400089" x2="46.0116572851" y2="-30.4681501176" />
      <line x1="10.5405951926" y1="39.2907475314" x2="9.6742476703" y2="38.7284240213" />
      <line x1="48.3998168597" y1="-30.6537655506" x2="48.3998168597" y2="-27.8177328617" />
      <line x1="43.5737691765" y1="-28.1095271464" x2="43.5737691765" y2="-25.2118119869" />
      <line x1="40.9282789461" y1="-27.4605103489" x2="40.9282789461" y2="-25.5187044772" />
      <line x1="40.3031820708" y1="-27.1084863309" x2="40.3031820708" y2="-26.1133406768" />
      <line x1="48.4749208224" y1="-26.1906793246" x2="49.3412683447" y2="-27.3007894333" />
      <line x1="17.4713753706" y1="37.0996011372" x2="18.3377228929" y2="35.9894910286" />
      <line x1="49.3412683447" y1="-29.8094398614" x2="49.3412683447" y2="-27.3007894333" />
      <line x1="18.3377228929" y1="33.4808406005" x2="18.3377228929" y2="35.9894910286" />
      <line x1="13.6211106537" y1="38.7388521235" x2="14.10259038" y2="39.0447474494" />
      <line x1="13.5602565952" y1="38.7580909606" x2="14.3785647512" y2="39.3072737198" />
      <line x1="15.8412123218" y1="38.0369733105" x2="15.2982113418" y2="38.666755291" />
      <line x1="16.2997806961" y1="37.8919982263" x2="15.574185713" y2="38.9292815613" />
      <line x1="15.9153984502" y1="41.7100066501" x2="16.828828839" y2="42.3230278177" />
      <line x1="19.9151546738" y1="40.4454951231" x2="19.1052146743" y2="41.6033549256" />
      <line x1="19.9151546738" y1="37.936844695" x2="19.9151546738" y2="40.4454951231" />
      <line x1="-35.7761133805" y1="-7.3826969272" x2="-35.7761133805" y2="-4.8740464991" />
      <line x1="-34.4085029198" y1="-8.758381691" x2="-35.1634292793" y2="-8.2818101845" />
      <line x1="45.0710289877" y1="-33.5962920582" x2="45.8259553473" y2="-33.1197205518" />
      <line x1="48.4006400472" y1="-25.7683202565" x2="49.1555664068" y2="-26.2448917629" />
      <line x1="10.6148759677" y1="39.3479155338" x2="9.8599496082" y2="38.8713440274" />
      <line x1="17.3970945955" y1="37.5219602054" x2="18.152020955" y2="37.0453886989" />
      <line x1="49.5640224742" y1="-29.3529510293" x2="49.5640224742" y2="-26.8443006012" />
      <line x1="18.5604770225" y1="33.9373294326" x2="18.5604770225" y2="36.4459798607" />
      <line x1="19.0685389143" y1="42.0575471231" x2="19.8234652738" y2="41.5809756167" />
      <line x1="16.9344981918" y1="42.4139942584" x2="16.1795718322" y2="41.937422752" />
      <line x1="20.2319213412" y1="40.9815667784" x2="20.2319213412" y2="38.4729163503" />
    </g>
  </g>
</svg>